<svg width="50" height="50" viewBox="0 0 38 38" fill="none" xmlns="http://www.w3.org/2000/svg">
<path d="M30.875 33.25C33.4984 33.25 35.625 31.1234 35.625 28.5V21.375C35.625 18.7516 33.4984 16.625 30.875 16.625H7.125C4.50165 16.625 2.375 18.7516 2.375 21.375V28.5C2.375 31.1234 4.50165 33.25 7.125 33.25H30.875Z" fill="#ffffff"/>
<path d="M2.375 16.0642V9.5C2.375 6.87665 4.50165 4.75 7.125 4.75H15.6412C16.5861 4.75 17.4922 5.12533 18.1603 5.79343L21.5191 9.15219C21.7418 9.37489 22.0438 9.5 22.3588 9.5H30.875C33.4984 9.5 35.625 11.6266 35.625 14.25V16.0642C34.3645 14.936 32.6998 14.25 30.875 14.25H7.125C5.30016 14.25 3.63555 14.936 2.375 16.0642Z" fill="#ffffff"/>
</svg>
